<svg width="34" height="33" viewBox="0 0 34 33" fill="none" xmlns="http://www.w3.org/2000/svg">
<g clip-path="url(#clip0_4594_36)">
<path d="M16.7803 1.08398L16.792 1.08496H16.9502C17.2244 1.13147 17.4634 1.30637 17.5898 1.56152L17.5908 1.5625L21.3408 9.09863L21.3438 9.10449C21.766 9.93918 22.5717 10.5199 23.5039 10.6514V10.6523L31.9268 11.8789H31.9316C32.1648 11.9117 32.3741 12.0351 32.5146 12.2197L32.5156 12.2207C32.6501 12.3972 32.7074 12.6206 32.6748 12.8398V12.8428C32.6475 13.0301 32.5589 13.2039 32.4229 13.3379L26.3242 19.25C25.6368 19.8965 25.3287 20.8452 25.4951 21.7686H25.4961L26.9951 30.0732C27.0649 30.5346 26.7647 30.9654 26.3115 31.0625C26.1169 31.0914 25.9134 31.06 25.7305 30.9668H25.7295L18.2256 27.0566L18.2139 27.0508C17.373 26.6266 16.3799 26.6265 15.5391 27.0508L15.5283 27.0566L8.01465 30.9717L8.00781 30.9746C7.56879 31.2078 7.02769 31.0545 6.77637 30.6299C6.69104 30.4625 6.65928 30.272 6.6875 30.084L8.1875 21.7861C8.35447 20.8623 8.04227 19.9112 7.35742 19.2656H7.3584L1.25488 13.3525L1.25391 13.3506L1.19531 13.2891C0.941842 12.9894 0.93485 12.5529 1.17578 12.2461L1.23047 12.1826C1.24289 12.1702 1.25788 12.1562 1.26562 12.1484L1.27246 12.1406C1.40293 12.0079 1.57407 11.9243 1.75879 11.9023L1.77148 11.9004L1.78516 11.8994L10.207 10.6699C11.1347 10.5374 11.9417 9.96209 12.3672 9.12109L12.377 9.10156L15.9854 1.5625C16.1342 1.2632 16.4433 1.07615 16.7803 1.08398Z" stroke="black" stroke-width="2"/>
</g>
<defs>
<clipPath id="clip0_4594_36">
<rect width="34" height="33" fill="white"/>
</clipPath>
</defs>
</svg>
