<svg width="62" height="62" viewBox="0 0 62 62" fill="none" xmlns="http://www.w3.org/2000/svg">
<g clip-path="url(#clip0_4593_23)">
<path d="M9.84082 6.5C11.1573 6.50011 12.1816 7.61584 12.1816 8.9375C12.1816 10.2592 11.1573 11.3749 9.84082 11.375C8.52427 11.375 7.5 10.2592 7.5 8.9375C7.5 7.61578 8.52427 6.5 9.84082 6.5Z" fill="black" stroke="black"/>
<path d="M17.2034 6.5C18.5199 6.50011 19.5442 7.61584 19.5442 8.9375C19.5442 10.2592 18.5199 11.3749 17.2034 11.375C15.8868 11.375 14.8626 10.2592 14.8626 8.9375C14.8626 7.61578 15.8868 6.5 17.2034 6.5Z" fill="black" stroke="black"/>
<path d="M24.5658 6.5C25.8823 6.50011 26.9066 7.61584 26.9066 8.9375C26.9066 10.2592 25.8823 11.3749 24.5658 11.375C23.2492 11.375 22.225 10.2592 22.225 8.9375C22.225 7.61578 23.2492 6.5 24.5658 6.5Z" fill="black" stroke="black"/>
<path d="M52.474 11.625H45.3698C44.3889 11.625 43.5938 10.7575 43.5938 9.6875C43.5938 8.61748 44.3889 7.75 45.3698 7.75H52.474C53.4548 7.75 54.25 8.61748 54.25 9.6875C54.25 10.7575 53.4548 11.625 52.474 11.625Z" fill="black"/>
<path d="M60.1836 13.0625C61.4676 13.0625 62.5 14.1128 62.5 15.3975V56.4961C62.4998 59.8024 59.8362 62.5 56.5508 62.5H5.44922C2.16378 62.5 -0.499789 59.8024 -0.5 56.4961V15.3975C-0.5 14.1128 0.532385 13.0625 1.81641 13.0625C3.10043 13.0625 4.13281 14.1128 4.13281 15.3975V56.4961C4.13302 57.2362 4.72866 57.8301 5.44922 57.8301H56.5508C57.2713 57.8301 57.867 57.2362 57.8672 56.4961V15.3975C57.8672 14.1128 58.8996 13.0625 60.1836 13.0625Z" fill="black" stroke="black"/>
<path d="M52.7237 6.5C54.0207 6.5 55.0001 7.63319 55.0001 8.9375C55.0001 10.2418 54.0207 11.375 52.7237 11.375H45.6202C44.323 11.375 43.3438 10.2418 43.3438 8.9375C43.3438 7.63321 44.3231 6.5 45.6202 6.5H52.7237Z" fill="black" stroke="black"/>
<path d="M29.853 40.8662C30.6593 39.8577 32.1047 39.7234 33.0679 40.584L33.2358 40.75C34.0255 41.6133 34.0782 42.9728 33.3345 43.9033L31.6177 46.0488L31.6187 46.0498C31.5262 46.1664 31.4503 46.306 31.3979 46.457L31.354 46.6113L30.7544 49.2617L33.0806 48.1963C33.2578 48.1151 33.4208 47.9869 33.5483 47.8262L33.5493 47.8252L35.2407 45.709C36.0471 44.7003 37.4932 44.566 38.4565 45.4268C39.4033 46.2727 39.5166 47.7534 38.7231 48.7461L37.0356 50.8574L37.0347 50.8564C36.4645 51.5745 35.7279 52.1573 34.9038 52.5352L28.4146 55.5088C28.123 55.6421 27.8126 55.708 27.5034 55.708C26.9717 55.708 26.4498 55.5129 26.0347 55.1445C25.3805 54.5643 25.1014 53.6545 25.2954 52.7949L26.939 45.5225C27.1455 44.6086 27.5562 43.7439 28.1304 43.0205L28.1313 43.0186L29.853 40.8662Z" fill="black" stroke="black"/>
<path d="M27.1982 24.6875C28.4766 24.6875 29.4668 25.7748 29.4668 27.0566C29.4668 28.3384 28.4766 29.4258 27.1982 29.4258H9.51758C8.2394 29.4255 7.25 28.3383 7.25 27.0566C7.25003 25.775 8.23941 24.6878 9.51758 24.6875H27.1982Z" fill="black" stroke="black"/>
<path d="M20.126 35.9023C21.4044 35.9023 22.3945 36.9896 22.3945 38.2715C22.3945 39.5534 21.4045 40.6406 20.126 40.6406H9.51758C8.23939 40.6404 7.25 39.5532 7.25 38.2715C7.25003 36.9898 8.23941 35.9026 9.51758 35.9023H20.126Z" fill="black" stroke="black"/>
<path d="M20.126 47.1172C21.4044 47.1172 22.3945 48.2045 22.3945 49.4863C22.3945 50.7682 21.4044 51.8555 20.126 51.8555H9.51758C8.2394 51.8552 7.25002 50.768 7.25 49.4863C7.25 48.2047 8.2394 47.1175 9.51758 47.1172H20.126Z" fill="black" stroke="black"/>
<path d="M56.5508 -0.5C59.8234 -0.5 62.4999 2.11818 62.5 5.35547V15.5908C62.4999 16.6895 61.7174 17.5952 60.6836 17.8203V17.9375H1.31641V17.8203C0.282604 17.5952 -0.499943 16.6895 -0.5 15.5908V5.35547C-0.499944 2.11818 2.17662 -0.499999 5.44922 -0.5H56.5508ZM5.44922 4.07031C4.71562 4.07031 4.13287 4.65544 4.13281 5.35547V13.3672H57.8672V5.35547C57.8671 4.65545 57.2843 4.07031 56.5508 4.07031H5.44922Z" fill="black" stroke="black"/>
<path d="M44.1045 23.8975C46.2401 21.3902 50.0483 21.0637 52.5947 23.1699C55.1459 25.2801 55.4814 29.0469 53.3389 31.5645L53.3379 31.5654L38.3164 49.0869C37.8517 49.6288 37.1897 49.9062 36.5273 49.9062C35.9952 49.9062 35.4576 49.7279 35.0176 49.3613C34.8502 49.222 34.71 49.0627 34.5928 48.8926L29.7588 44.8945C29.6349 44.8258 29.5122 44.7468 29.3965 44.6504C28.5252 43.9246 28.3225 42.705 28.8564 41.7539H28.8574C28.9328 41.6133 29.0234 41.4755 29.1338 41.3457C29.1764 41.2956 29.2213 41.249 29.2666 41.2041L44.1045 23.8975ZM49.5859 26.7266C49.0166 26.2555 48.1622 26.3306 47.6865 26.8896L47.6855 26.8906L34.249 42.5635L36.3037 44.2637L49.7559 28.5723C50.2219 28.0232 50.1513 27.1943 49.5859 26.7266Z" fill="black" stroke="black"/>
</g>
<defs>
<clipPath id="clip0_4593_23">
<rect width="62" height="62" fill="white"/>
</clipPath>
</defs>
</svg>
