<svg width="1492" height="196" viewBox="0 0 1492 196" fill="none" xmlns="http://www.w3.org/2000/svg">
<path d="M260.992 170C258.499 170 257.252 169.207 257.252 167.62V167.11C257.252 166.09 258.329 164.617 260.482 162.69C262.636 160.65 263.712 158.383 263.712 155.89V63.41C263.712 60.9167 262.636 58.7067 260.482 56.78C258.329 54.74 257.252 53.21 257.252 52.19V51.68C257.252 50.0933 258.499 49.3 260.992 49.3H298.392C319.246 49.3 336.359 55.0233 349.732 66.47C363.219 77.8033 369.962 92.0267 369.962 109.14C369.962 127.613 363.956 142.403 351.942 153.51C340.042 164.503 324.742 170 306.042 170H260.992ZM294.142 161.33H304.852C317.772 161.33 328.312 157.307 336.472 149.26C344.746 141.213 348.882 130.39 348.882 116.79C348.882 99.9033 343.669 85.9067 333.242 74.8C322.816 63.58 309.896 57.97 294.482 57.97H289.722C285.869 57.97 283.942 60.0667 283.942 64.26V149.26C283.942 153.113 284.849 156.117 286.662 158.27C288.476 160.31 290.969 161.33 294.142 161.33ZM450.202 145.01C451.109 143.763 452.242 143.31 453.602 143.65C455.076 143.99 455.756 145.01 455.642 146.71C454.736 152.717 451.222 158.383 445.102 163.71C438.982 169.037 430.992 171.7 421.132 171.7C409.572 171.7 399.939 167.733 392.232 159.8C384.639 151.867 380.842 141.44 380.842 128.52C380.842 116.507 384.752 106.533 392.572 98.6C400.506 90.6667 410.139 86.7 421.472 86.7C431.672 86.7 439.492 89.25 444.932 94.35C450.486 99.3367 453.262 105.117 453.262 111.69C453.262 117.583 450.372 121.55 444.592 123.59L403.452 138.72C405.606 144.613 408.836 149.203 413.142 152.49C417.449 155.777 422.549 157.42 428.442 157.42C433.542 157.42 437.962 156.287 441.702 154.02C445.556 151.64 448.389 148.637 450.202 145.01ZM418.072 93.16C412.746 93.16 408.496 95.71 405.322 100.81C402.149 105.91 400.562 112.597 400.562 120.87C400.562 124.723 400.902 128.35 401.582 131.75L429.802 119.51C432.749 118.15 434.222 115.77 434.222 112.37C434.222 108.29 432.636 104.097 429.462 99.79C426.402 95.37 422.606 93.16 418.072 93.16ZM499.87 171.53C489.33 171.53 480.773 169.547 474.2 165.58C467.627 161.5 464.34 156.967 464.34 151.98C464.34 149.487 465.077 147.56 466.55 146.2C468.137 144.84 470.233 144.16 472.84 144.16C475.107 144.16 476.977 144.897 478.45 146.37C480.037 147.843 481.283 149.657 482.19 151.81C483.097 153.963 484.117 156.117 485.25 158.27C486.497 160.31 488.31 162.067 490.69 163.54C493.183 165.013 496.243 165.75 499.87 165.75C504.517 165.75 508.257 164.617 511.09 162.35C514.037 160.083 515.51 156.853 515.51 152.66C515.51 148.467 513.81 145.237 510.41 142.97C507.01 140.59 502.873 138.833 498 137.7C493.24 136.567 488.423 135.263 483.55 133.79C478.677 132.317 474.54 129.71 471.14 125.97C467.74 122.117 466.04 117.073 466.04 110.84C466.04 103.927 469.157 98.2033 475.39 93.67C481.623 89.0233 489.613 86.7 499.36 86.7C509.447 86.7 517.607 88.7967 523.84 92.99C530.187 97.07 533.36 101.717 533.36 106.93C533.36 109.083 532.623 110.84 531.15 112.2C529.677 113.56 527.807 114.24 525.54 114.24C523.387 114.24 521.573 113.503 520.1 112.03C518.74 110.557 517.55 108.8 516.53 106.76C515.623 104.607 514.603 102.51 513.47 100.47C512.45 98.3167 510.807 96.5033 508.54 95.03C506.387 93.5567 503.667 92.82 500.38 92.82C496.3 92.82 492.9 94.0667 490.18 96.56C487.46 99.0533 486.1 102.17 486.1 105.91C486.1 110.103 487.8 113.39 491.2 115.77C494.6 118.15 498.68 119.963 503.44 121.21C508.313 122.343 513.187 123.647 518.06 125.12C522.933 126.593 527.07 129.2 530.47 132.94C533.87 136.68 535.57 141.667 535.57 147.9C535.57 154.7 532.283 160.367 525.71 164.9C519.25 169.32 510.637 171.53 499.87 171.53ZM562.542 74.29C558.348 74.29 554.948 73.1 552.342 70.72C549.735 68.34 548.432 65.28 548.432 61.54C548.432 57.8 549.735 54.74 552.342 52.36C554.948 49.98 558.348 48.79 562.542 48.79C566.622 48.79 569.908 49.98 572.402 52.36C575.008 54.74 576.312 57.8 576.312 61.54C576.312 65.28 575.008 68.34 572.402 70.72C569.908 73.1 566.622 74.29 562.542 74.29ZM549.962 170C547.582 170 546.392 169.15 546.392 167.45V166.77C546.392 165.75 547.412 164.277 549.452 162.35C551.605 160.423 552.682 158.213 552.682 155.72V111.18C552.682 108.573 551.605 106.137 549.452 103.87C547.412 101.603 546.392 100.13 546.392 99.45V98.94C546.392 98.0333 547.412 97.0133 549.452 95.88L566.452 87.38C568.378 86.5867 569.852 86.53 570.872 87.21C572.005 87.7767 572.572 88.7967 572.572 90.27V155.72C572.572 158.213 573.705 160.423 575.972 162.35C578.352 164.277 579.542 165.75 579.542 166.77V167.45C579.542 169.15 578.295 170 575.802 170H549.962ZM663.802 88.4C666.182 88.4 667.995 88.6267 669.242 89.08C670.602 89.5333 671.339 90.1 671.452 90.78C671.679 91.46 671.565 92.2533 671.112 93.16C670.545 94.52 669.582 95.4833 668.222 96.05C666.975 96.6167 665.105 97.07 662.612 97.41C660.232 97.75 658.645 98.0333 657.852 98.26C661.025 101.093 663.575 104.55 665.502 108.63C667.542 112.71 668.562 116.79 668.562 120.87C668.562 127.557 666.805 133.563 663.292 138.89C659.779 144.103 654.962 148.127 648.842 150.96C662.895 154.247 669.922 161.047 669.922 171.36C669.922 178.84 666.069 184.79 658.362 189.21C650.655 193.743 640.852 196.01 628.952 196.01C616.825 196.01 607.249 193.517 600.222 188.53C593.195 183.657 589.682 177.933 589.682 171.36C589.682 169.093 590.362 167.223 591.722 165.75C593.195 164.163 595.235 163.37 597.842 163.37C600.109 163.37 601.979 164.277 603.452 166.09C605.039 167.903 606.399 170.057 607.532 172.55C608.665 175.157 609.969 177.763 611.442 180.37C613.029 182.977 615.352 185.187 618.412 187C621.472 188.813 625.212 189.72 629.632 189.72C635.752 189.72 640.625 188.077 644.252 184.79C647.992 181.617 649.862 177.423 649.862 172.21C649.862 167.337 648.502 163.313 645.782 160.14C643.175 156.967 639.549 155.153 634.902 154.7C632.182 154.927 630.085 155.04 628.612 155.04C617.845 155.04 608.779 151.867 601.412 145.52C594.045 139.06 590.362 131.127 590.362 121.72C590.362 111.407 593.989 103.02 601.242 96.56C608.495 89.9867 617.902 86.7 629.462 86.7C632.522 86.7 637.225 86.9833 643.572 87.55C649.919 88.1167 656.662 88.4 663.802 88.4ZM610.082 113.05C610.082 122.683 612.235 131.013 616.542 138.04C620.849 144.953 625.949 148.41 631.842 148.41C637.055 148.41 641.192 146.54 644.252 142.8C647.312 139.06 648.842 134.243 648.842 128.35C648.842 118.717 646.689 110.443 642.382 103.53C638.189 96.6167 632.805 93.16 626.232 93.16C621.245 93.16 617.279 95.03 614.332 98.77C611.499 102.397 610.082 107.157 610.082 113.05ZM767.003 155.72C767.116 158.213 768.136 160.48 770.063 162.52C772.103 164.447 773.123 165.92 773.123 166.94V167.62C773.123 169.32 771.876 170.17 769.383 170.17H744.563C742.069 170.17 740.823 169.32 740.823 167.62V166.94C740.823 165.92 741.843 164.447 743.883 162.52C746.036 160.48 747.056 158.213 746.943 155.72L745.243 122.91C744.449 104.21 738.499 94.86 727.393 94.86C722.066 94.86 717.759 96.8433 714.473 100.81C711.186 104.663 709.543 109.707 709.543 115.94V155.89C709.543 158.383 710.676 160.593 712.943 162.52C715.323 164.447 716.513 165.92 716.513 166.94V167.62C716.513 169.32 715.266 170.17 712.773 170.17H686.423C684.043 170.17 682.853 169.32 682.853 167.62V166.94C682.853 165.92 683.986 164.447 686.253 162.52C688.519 160.593 689.653 158.383 689.653 155.89V110.33C689.653 108.177 688.973 106.42 687.613 105.06C686.366 103.7 685.119 102.623 683.873 101.83C682.626 100.923 682.003 99.96 682.003 98.94V98.43C682.003 97.2967 683.023 96.2767 685.063 95.37L701.552 87.38C703.366 86.5867 704.669 86.53 705.463 87.21C706.369 87.7767 706.823 88.8533 706.823 90.44V101.49C709.203 96.8433 712.659 93.2167 717.193 90.61C721.726 88.0033 726.883 86.7 732.663 86.7C741.389 86.7 748.756 89.7033 754.763 95.71C760.769 101.717 764.169 111.01 764.963 123.59L767.003 155.72ZM868.814 141.27C869.834 141.27 870.571 141.61 871.024 142.29C871.591 142.857 871.761 143.65 871.534 144.67L866.604 166.26C865.811 168.753 864.394 170 862.354 170H785.854C784.834 170 783.927 169.717 783.134 169.15C782.454 168.47 782.114 167.62 782.114 166.6V164.9C782.114 160.14 783.247 155.437 785.514 150.79C787.781 146.03 790.727 141.667 794.354 137.7C798.094 133.733 802.174 129.823 806.594 125.97C811.014 122.003 815.434 118.15 819.854 114.41C824.274 110.557 828.297 106.76 831.924 103.02C835.664 99.1667 838.667 95.1433 840.934 90.95C843.201 86.6433 844.334 82.3933 844.334 78.2C844.334 71.6267 842.407 66.3 838.554 62.22C834.814 58.14 830.621 56.1 825.974 56.1C822.007 56.1 818.607 57.12 815.774 59.16C813.054 61.2 810.901 63.6933 809.314 66.64C807.841 69.5867 806.424 72.59 805.064 75.65C803.817 78.5967 802.231 81.09 800.304 83.13C798.491 85.17 796.281 86.19 793.674 86.19C790.614 86.19 788.121 85.34 786.194 83.64C784.267 81.8267 783.304 79.39 783.304 76.33C783.304 69.3033 787.271 62.7867 795.204 56.78C803.137 50.66 813.054 47.6 824.954 47.6C836.854 47.6 846.431 50.3767 853.684 55.93C860.937 61.37 864.564 69.36 864.564 79.9C864.564 86.36 862.524 92.5367 858.444 98.43C854.364 104.323 849.321 109.537 843.314 114.07C837.307 118.603 831.244 122.967 825.124 127.16C819.004 131.353 813.451 135.887 808.464 140.76C803.477 145.633 800.417 150.507 799.284 155.38H850.964C853.457 155.38 855.611 154.643 857.424 153.17C859.351 151.697 860.711 150.11 861.504 148.41C862.411 146.597 863.317 144.953 864.224 143.48C865.244 142.007 866.264 141.27 867.284 141.27H868.814ZM914.019 171.7C906.653 171.7 900.816 169.377 896.509 164.73C892.316 159.97 890.219 153.113 890.219 144.16V96.73H880.529C878.603 96.73 877.639 95.7667 877.639 93.84V91.46C877.639 89.42 878.603 88.4 880.529 88.4H885.799C890.106 88.4 893.563 86.9267 896.169 83.98C898.889 81.0333 900.589 77.01 901.269 71.91C901.609 69.4167 902.743 68.17 904.669 68.17H907.219C909.373 68.17 910.449 69.4167 910.449 71.91L910.619 88.4H932.039C932.946 88.4 933.683 88.6833 934.249 89.25C934.816 89.8167 935.099 90.5533 935.099 91.46V93.84C935.099 95.7667 934.079 96.73 932.039 96.73H910.619V144.33C910.619 148.297 911.526 151.413 913.339 153.68C915.153 155.833 917.476 156.91 920.309 156.91C927.109 156.91 931.133 153.963 932.379 148.07C932.833 147.163 933.513 146.597 934.419 146.37C935.326 146.143 936.119 146.257 936.799 146.71C937.593 147.163 937.989 147.9 937.989 148.92C937.989 155.04 935.779 160.367 931.359 164.9C927.053 169.433 921.273 171.7 914.019 171.7ZM1018.58 154.7C1018.81 157.193 1019.43 159.177 1020.45 160.65C1021.58 162.01 1022.66 162.86 1023.68 163.2C1024.81 163.54 1025.78 163.993 1026.57 164.56C1027.48 165.127 1027.93 165.863 1027.93 166.77C1027.93 169.603 1023.34 171.02 1014.16 171.02C1009.63 171.02 1006.28 170.34 1004.13 168.98C1002.09 167.507 1000.9 164.787 1000.56 160.82C996.028 168.073 988.151 171.7 976.931 171.7C967.411 171.7 959.705 169.49 953.811 165.07C948.031 160.537 945.141 154.19 945.141 146.03C945.028 137.983 947.918 131.75 953.811 127.33C959.705 122.797 967.128 120.53 976.081 120.53C984.241 120.53 990.815 122.457 995.801 126.31L995.461 122.91C994.441 112.483 992.628 104.89 990.021 100.13C987.415 95.37 983.278 92.99 977.611 92.99C974.098 92.99 971.151 94.0667 968.771 96.22C966.505 98.3733 964.918 100.753 964.011 103.36C963.218 105.853 962.028 108.177 960.441 110.33C958.855 112.483 956.871 113.56 954.491 113.56C951.998 113.56 949.958 112.88 948.371 111.52C946.898 110.047 946.161 108.12 946.161 105.74C946.161 100.3 949.108 95.7667 955.001 92.14C961.008 88.5133 968.545 86.7 977.611 86.7C988.265 86.7 996.878 89.8733 1003.45 96.22C1010.02 102.453 1013.93 111.067 1015.18 122.06L1018.58 154.7ZM982.541 165.24C987.188 165.24 990.928 163.54 993.761 160.14C996.708 156.74 998.068 152.717 997.841 148.07L997.331 142.8C996.991 137.927 995.348 134.073 992.401 131.24C989.455 128.407 985.715 126.99 981.181 126.99C976.421 126.99 972.568 128.52 969.621 131.58C966.675 134.527 965.201 138.55 965.201 143.65C965.201 149.657 966.788 154.757 969.961 158.95C973.248 163.143 977.441 165.24 982.541 165.24ZM1050.79 74.29C1046.6 74.29 1043.2 73.1 1040.59 70.72C1037.99 68.34 1036.68 65.28 1036.68 61.54C1036.68 57.8 1037.99 54.74 1040.59 52.36C1043.2 49.98 1046.6 48.79 1050.79 48.79C1054.87 48.79 1058.16 49.98 1060.65 52.36C1063.26 54.74 1064.56 57.8 1064.56 61.54C1064.56 65.28 1063.26 68.34 1060.65 70.72C1058.16 73.1 1054.87 74.29 1050.79 74.29ZM1038.21 170C1035.83 170 1034.64 169.15 1034.64 167.45V166.77C1034.64 165.75 1035.66 164.277 1037.7 162.35C1039.86 160.423 1040.93 158.213 1040.93 155.72V111.18C1040.93 108.573 1039.86 106.137 1037.7 103.87C1035.66 101.603 1034.64 100.13 1034.64 99.45V98.94C1034.64 98.0333 1035.66 97.0133 1037.7 95.88L1054.7 87.38C1056.63 86.5867 1058.1 86.53 1059.12 87.21C1060.26 87.7767 1060.82 88.7967 1060.82 90.27V155.72C1060.82 158.213 1061.96 160.423 1064.22 162.35C1066.6 164.277 1067.79 165.75 1067.79 166.77V167.45C1067.79 169.15 1066.55 170 1064.05 170H1038.21ZM1082.18 170C1079.8 170 1078.61 169.15 1078.61 167.45V166.94C1078.61 165.807 1079.63 164.277 1081.67 162.35C1083.83 160.423 1084.9 158.27 1084.9 155.89V66.3C1084.9 63.58 1083.83 61.1433 1081.67 58.99C1079.63 56.8367 1078.61 55.42 1078.61 54.74V54.23C1078.61 53.21 1079.58 52.19 1081.5 51.17L1098.67 42.67C1100.6 41.8767 1102.07 41.82 1103.09 42.5C1104.23 43.0667 1104.79 44.03 1104.79 45.39V155.89C1104.79 158.27 1105.93 160.48 1108.19 162.52C1110.57 164.447 1111.76 165.92 1111.76 166.94V167.45C1111.76 169.15 1110.52 170 1108.02 170H1082.18ZM1240.43 88.4C1242.35 88.4 1243.32 89.1933 1243.32 90.78V91.46C1243.32 92.5933 1242.13 94.1233 1239.75 96.05C1237.37 97.9767 1235.72 100.187 1234.82 102.68L1211.87 166.26C1211.07 168.753 1209.49 170 1207.11 170H1202.69C1199.97 170 1198.27 168.753 1197.59 166.26L1180.08 111.18L1162.57 166.26C1161.77 168.753 1160.13 170 1157.64 170H1154.58C1152.2 170 1150.5 168.753 1149.48 166.26L1123.98 102.68C1123.07 100.3 1121.6 98.1467 1119.56 96.22C1117.63 94.18 1116.67 92.5933 1116.67 91.46V90.78C1116.67 89.1933 1117.69 88.4 1119.73 88.4H1145.91C1147.83 88.4 1148.8 89.25 1148.8 90.95V91.46C1148.8 92.2533 1148.4 92.99 1147.61 93.67C1146.81 94.35 1146.02 95.03 1145.23 95.71C1144.55 96.2767 1143.98 97.1833 1143.53 98.43C1143.07 99.5633 1143.19 101.037 1143.87 102.85L1159.85 149.26L1177.53 91.97C1178.21 89.93 1179.34 88.91 1180.93 88.91L1189.09 88.74C1190.79 88.74 1191.92 89.7033 1192.49 91.63L1209.83 149.43L1225.47 104.55C1226.26 102.51 1226.37 100.753 1225.81 99.28C1225.24 97.8067 1224.45 96.73 1223.43 96.05C1222.41 95.37 1221.39 94.6333 1220.37 93.84C1219.46 93.0467 1219.01 92.2533 1219.01 91.46V90.95C1219.01 89.25 1220.03 88.4 1222.07 88.4H1240.43ZM1265.29 74.29C1261.09 74.29 1257.69 73.1 1255.09 70.72C1252.48 68.34 1251.18 65.28 1251.18 61.54C1251.18 57.8 1252.48 54.74 1255.09 52.36C1257.69 49.98 1261.09 48.79 1265.29 48.79C1269.37 48.79 1272.65 49.98 1275.15 52.36C1277.75 54.74 1279.06 57.8 1279.06 61.54C1279.06 65.28 1277.75 68.34 1275.15 70.72C1272.65 73.1 1269.37 74.29 1265.29 74.29ZM1252.71 170C1250.33 170 1249.14 169.15 1249.14 167.45V166.77C1249.14 165.75 1250.16 164.277 1252.2 162.35C1254.35 160.423 1255.43 158.213 1255.43 155.72V111.18C1255.43 108.573 1254.35 106.137 1252.2 103.87C1250.16 101.603 1249.14 100.13 1249.14 99.45V98.94C1249.14 98.0333 1250.16 97.0133 1252.2 95.88L1269.2 87.38C1271.12 86.5867 1272.6 86.53 1273.62 87.21C1274.75 87.7767 1275.32 88.7967 1275.32 90.27V155.72C1275.32 158.213 1276.45 160.423 1278.72 162.35C1281.1 164.277 1282.29 165.75 1282.29 166.77V167.45C1282.29 169.15 1281.04 170 1278.55 170H1252.71ZM1378.11 155.72C1378.22 158.213 1379.24 160.48 1381.17 162.52C1383.21 164.447 1384.23 165.92 1384.23 166.94V167.62C1384.23 169.32 1382.98 170.17 1380.49 170.17H1355.67C1353.17 170.17 1351.93 169.32 1351.93 167.62V166.94C1351.93 165.92 1352.95 164.447 1354.99 162.52C1357.14 160.48 1358.16 158.213 1358.05 155.72L1356.35 122.91C1355.55 104.21 1349.6 94.86 1338.5 94.86C1333.17 94.86 1328.86 96.8433 1325.58 100.81C1322.29 104.663 1320.65 109.707 1320.65 115.94V155.89C1320.65 158.383 1321.78 160.593 1324.05 162.52C1326.43 164.447 1327.62 165.92 1327.62 166.94V167.62C1327.62 169.32 1326.37 170.17 1323.88 170.17H1297.53C1295.15 170.17 1293.96 169.32 1293.96 167.62V166.94C1293.96 165.92 1295.09 164.447 1297.36 162.52C1299.62 160.593 1300.76 158.383 1300.76 155.89V110.33C1300.76 108.177 1300.08 106.42 1298.72 105.06C1297.47 103.7 1296.22 102.623 1294.98 101.83C1293.73 100.923 1293.11 99.96 1293.11 98.94V98.43C1293.11 97.2967 1294.13 96.2767 1296.17 95.37L1312.66 87.38C1314.47 86.5867 1315.77 86.53 1316.57 87.21C1317.47 87.7767 1317.93 88.8533 1317.93 90.44V101.49C1320.31 96.8433 1323.76 93.2167 1328.3 90.61C1332.83 88.0033 1337.99 86.7 1343.77 86.7C1352.49 86.7 1359.86 89.7033 1365.87 95.71C1371.87 101.717 1375.27 111.01 1376.07 123.59L1378.11 155.72ZM1474.14 155.89C1474.14 158.383 1475.21 160.65 1477.37 162.69C1479.52 164.73 1480.6 166.203 1480.6 167.11V167.62C1480.6 169.207 1479.63 170 1477.71 170H1460.03C1457.99 170 1456.85 168.923 1456.63 166.77L1456.12 160.82C1450.45 168.073 1442.52 171.7 1432.32 171.7C1421.44 171.7 1412.09 167.79 1404.27 159.97C1396.56 152.15 1392.71 141.837 1392.71 129.03C1392.71 116.677 1396.5 106.533 1404.1 98.6C1411.8 90.6667 1421.32 86.7 1432.66 86.7C1441.5 86.7 1448.92 89.59 1454.93 95.37V63.41C1454.93 61.2567 1454.25 59.5 1452.89 58.14C1451.64 56.78 1450.34 55.7033 1448.98 54.91C1447.73 54.0033 1447.11 53.04 1447.11 52.02V51.68C1447.11 50.2067 1448.13 49.0733 1450.17 48.28L1468.19 42.5C1472.15 41.14 1474.14 42.16 1474.14 45.56V155.89ZM1436.91 165.24C1441.55 165.24 1445.69 163.313 1449.32 159.46C1453.06 155.607 1454.93 150.223 1454.93 143.31V116.11C1454.93 110.443 1452.77 105.23 1448.47 100.47C1444.16 95.5967 1439.12 93.16 1433.34 93.16C1426.99 93.16 1421.89 95.7667 1418.04 100.98C1414.18 106.08 1412.2 113.107 1412.09 122.06C1411.86 133.96 1414.01 144.103 1418.55 152.49C1423.19 160.877 1429.31 165.127 1436.91 165.24Z" fill="black"/>
<g clip-path="url(#clip0_5203_43)">
<path d="M117.224 175.137H6.1481C4.51819 175.135 2.95567 174.501 1.80315 173.375C0.650621 172.248 0.00216631 170.722 3.09926e-07 169.129C-0.000335366 167.627 0.272007 166.137 0.804341 164.729L1.07347 164.112L4.31226 156.501L42.8075 66.0338C43.076 65.4022 43.5153 64.8537 44.0784 64.4474C44.6414 64.0411 45.307 63.7923 46.0038 63.7274C46.7005 63.6626 47.4023 63.7841 48.0337 64.0792C48.6651 64.3744 49.2024 64.8319 49.588 65.4027L56.8833 76.1518C57.3123 76.7896 57.5747 77.5205 57.6475 78.2804C57.7203 79.0404 57.6013 79.8061 57.3008 80.5106L27.7207 150.048L79.1661 116.448C79.2437 116.224 79.3441 116.009 79.4659 115.805L83.9685 105.792C84.3751 105.085 84.9647 104.495 85.6783 104.08C86.3919 103.666 87.2043 103.443 88.0341 103.433L98.9683 103.333C99.7454 103.322 100.513 103.5 101.203 103.85C101.892 104.201 102.482 104.713 102.919 105.341C103.356 105.969 103.626 106.694 103.706 107.449C103.786 108.205 103.673 108.968 103.377 109.67L99.1392 119.853C98.8109 120.631 98.272 121.307 97.5802 121.808C96.8884 122.309 96.07 122.617 95.2127 122.698L84.4628 122.652L32.6317 156.499H109.108C109.891 156.499 110.661 156.688 111.351 157.048C112.041 157.408 112.631 157.928 113.067 158.563L120.427 169.263C120.818 169.83 121.043 170.491 121.079 171.173C121.115 171.856 120.96 172.536 120.631 173.14C120.302 173.743 119.811 174.248 119.211 174.6C118.611 174.951 117.924 175.137 117.224 175.137Z" fill="url(#paint0_linear_5203_43)"/>
<path d="M181.638 57.0068C181.639 58.5084 181.366 59.9983 180.834 61.407L180.565 62.0288L177.325 69.6399L138.829 160.099C138.56 160.731 138.121 161.279 137.557 161.685C136.994 162.091 136.328 162.34 135.631 162.404C134.935 162.469 134.233 162.346 133.602 162.051C132.97 161.755 132.433 161.297 132.048 160.726L124.751 149.987C124.322 149.348 124.06 148.616 123.986 147.856C123.913 147.095 124.032 146.328 124.332 145.623L156.658 69.6438H72.527C71.7441 69.6424 70.9735 69.4531 70.2831 69.0923C69.5927 68.7315 69.0037 68.2105 68.5678 67.575L61.207 56.8748C60.8166 56.3072 60.5916 55.6466 60.5562 54.9636C60.5208 54.2806 60.6763 53.6011 61.006 52.9978C61.3357 52.3946 61.8271 51.8904 62.4277 51.5393C63.0282 51.1882 63.7153 51.0035 64.4151 51.0049H175.491C177.122 51.0052 178.685 51.6382 179.838 52.7647C180.99 53.8911 181.638 55.4189 181.638 57.012V57.0068Z" fill="#291C34"/>
</g>
<defs>
<linearGradient id="paint0_linear_5203_43" x1="-8.96022" y1="146.054" x2="119.984" y2="114.873" gradientUnits="userSpaceOnUse">
<stop stop-color="#8726FB"/>
<stop offset="1" stop-color="#D85EFA"/>
</linearGradient>
<clipPath id="clip0_5203_43">
<rect width="181.639" height="124.137" fill="white" transform="translate(0 51)"/>
</clipPath>
</defs>
</svg>
