<svg viewBox="0 0 215 21" xmlns="http://www.w3.org/2000/svg">
  <svg viewBox="0 0 30 21" preserveAspectRatio="xMinYMid meet">
    <path d="M0 6.66667L6.66667 3.33333L0 0V6.66667Z M26.6666 6.66667L20 3.33333L26.6666 0V6.66667Z M0 13.3333L13.3333 6.66667L26.6667 13.3333V20L13.3333 13.4167L0 20V13.3333Z" fill="#17ACFF"/>
  </svg>
  <path fill="#0a0a0a" d="M50.5 4L53 0H39.5L38 2.1V20H43V12H45.5L48 8H43V4H50.5Z M53 4L55.5 0H58V16H65.5L63 20H53V4Z M70.5 0L83 20H78L65.5 0H70.5Z M71.8025 9.91603L78 0H83L74.2452 14.0076L71.8025 9.91603ZM70.5367 11.9413L65.5 20H70.5L73.093 15.8511L70.5367 11.9413Z M114.684 0.483995L109.028 20H106.172L101.636 4.29199L96.9319 20L94.1039 20.028L88.6439 0.483995H91.3599L95.6159 17.032L100.32 0.483995H103.176L107.656 16.976L111.94 0.483995H114.684Z M120.02 2.55599V9.08H127.132V11.18H120.02V17.9H127.972V20H117.472V0.455995H127.972V2.55599H120.02Z M141.6 9.94799C142.309 10.06 142.953 10.3493 143.532 10.816C144.129 11.2827 144.596 11.8613 144.932 12.552C145.286 13.2427 145.464 13.98 145.464 14.764C145.464 15.7533 145.212 16.6493 144.708 17.452C144.204 18.236 143.466 18.8613 142.496 19.328C141.544 19.776 140.414 20 139.108 20H131.828V0.483995H138.828C140.153 0.483995 141.282 0.707995 142.216 1.15599C143.149 1.58533 143.849 2.17333 144.316 2.92C144.782 3.66666 145.016 4.50666 145.016 5.43999C145.016 6.59733 144.698 7.55866 144.064 8.32399C143.448 9.07066 142.626 9.61199 141.6 9.94799ZM134.376 8.91199H138.66C139.854 8.91199 140.778 8.63199 141.432 8.07199C142.085 7.51199 142.412 6.73733 142.412 5.748C142.412 4.75866 142.085 3.98399 141.432 3.424C140.778 2.86399 139.836 2.58399 138.604 2.58399H134.376V8.91199ZM138.884 17.9C140.153 17.9 141.142 17.6013 141.852 17.004C142.561 16.4067 142.916 15.576 142.916 14.512C142.916 13.4293 142.542 12.58 141.796 11.964C141.049 11.3293 140.05 11.012 138.8 11.012H134.376V17.9H138.884Z M155.188 20.196C153.9 20.196 152.742 19.972 151.716 19.524C150.708 19.0573 149.914 18.4227 149.336 17.62C148.757 16.7987 148.458 15.856 148.44 14.792H151.156C151.249 15.7067 151.622 16.4813 152.276 17.116C152.948 17.732 153.918 18.04 155.188 18.04C156.401 18.04 157.353 17.7413 158.044 17.144C158.753 16.528 159.108 15.744 159.108 14.792C159.108 14.0453 158.902 13.4387 158.492 12.972C158.081 12.5053 157.568 12.1507 156.952 11.908C156.336 11.6653 155.505 11.404 154.46 11.124C153.172 10.788 152.136 10.452 151.352 10.116C150.586 9.78 149.924 9.25733 149.364 8.548C148.822 7.82 148.552 6.84933 148.552 5.63599C148.552 4.57199 148.822 3.62933 149.364 2.80799C149.905 1.98666 150.661 1.35199 151.632 0.903994C152.621 0.455995 153.75 0.231995 155.02 0.231995C156.849 0.231995 158.342 0.689328 159.5 1.604C160.676 2.51866 161.338 3.73199 161.488 5.244H158.688C158.594 4.49733 158.202 3.84399 157.512 3.284C156.821 2.70533 155.906 2.41599 154.768 2.41599C153.704 2.41599 152.836 2.69599 152.164 3.25599C151.492 3.79733 151.156 4.56266 151.156 5.55199C151.156 6.26133 151.352 6.84 151.744 7.28799C152.154 7.736 152.649 8.08133 153.228 8.32399C153.825 8.54799 154.656 8.80933 155.72 9.108C157.008 9.46266 158.044 9.81733 158.828 10.172C159.612 10.508 160.284 11.04 160.844 11.768C161.404 12.4773 161.684 13.448 161.684 14.68C161.684 15.632 161.432 16.528 160.928 17.368C160.424 18.208 159.677 18.8893 158.688 19.412C157.698 19.9347 156.532 20.196 155.188 20.196Z M167.981 0.483995V20H165.433V0.483995H167.981Z M184.336 0.483995V2.55599H179.016V20H176.468V2.55599H171.12V0.483995H184.336Z M190.02 2.55599V9.08H197.132V11.18H190.02V17.9H197.972V20H187.472V0.455995H197.972V2.55599H190.02Z M208.016 20.196C206.728 20.196 205.57 19.972 204.544 19.524C203.536 19.0573 202.742 18.4227 202.164 17.62C201.585 16.7987 201.286 15.856 201.268 14.792H203.984C204.077 15.7067 204.45 16.4813 205.104 17.116C205.776 17.732 206.746 18.04 208.016 18.04C209.229 18.04 210.181 17.7413 210.872 17.144C211.581 16.528 211.936 15.744 211.936 14.792C211.936 14.0453 211.73 13.4387 211.32 12.972C210.909 12.5053 210.396 12.1507 209.78 11.908C209.164 11.6653 208.333 11.404 207.288 11.124C206 10.788 204.964 10.452 204.18 10.116C203.414 9.78 202.752 9.25733 202.192 8.548C201.65 7.82 201.38 6.84933 201.38 5.63599C201.38 4.57199 201.65 3.62933 202.192 2.80799C202.733 1.98666 203.489 1.35199 204.46 0.903994C205.449 0.455995 206.578 0.231995 207.848 0.231995C209.677 0.231995 211.17 0.689328 212.328 1.604C213.504 2.51866 214.166 3.73199 214.316 5.244H211.516C211.422 4.49733 211.03 3.84399 210.34 3.284C209.649 2.70533 208.734 2.41599 207.596 2.41599C206.532 2.41599 205.664 2.69599 204.992 3.25599C204.32 3.79733 203.984 4.56266 203.984 5.55199C203.984 6.26133 204.18 6.84 204.572 7.28799C204.982 7.736 205.477 8.08133 206.056 8.32399C206.653 8.54799 207.484 8.80933 208.548 9.108C209.836 9.46266 210.872 9.81733 211.656 10.172C212.44 10.508 213.112 11.04 213.672 11.768C214.232 12.4773 214.512 13.448 214.512 14.68C214.512 15.632 214.26 16.528 213.756 17.368C213.252 18.208 212.505 18.8893 211.516 19.412C210.526 19.9347 209.36 20.196 208.016 20.196Z"/>
</svg>
