<svg version="1.1" id="rdl_logo_full" xmlns="http://www.w3.org/2000/svg" xmlns:xlink="http://www.w3.org/1999/xlink" x="0px" y="0px" viewBox="0 0 800 371" style="enable-background:new 0 0 800 371;" xml:space="preserve">
<g>
	<path class="st0" d="M80.5,91.3l37.5,57.5H83.6L50,95.6H32.9v53.2H2.5V4.5h55.6c32.6,0,53,17.7,53,45.4
		C111.1,69.9,99.5,85.2,80.5,91.3 M32.9,30.4v40.1h24c15.1-0.2,23-8.2,23-20c0-12.8-8.6-20-24-20H32.9z"></path>
	<path class="st0" d="M506.6,77.9c-5.5-4.1-12.4-6.7-19.4-6.7c-7.1,0-10.8,3.5-10.8,8.2c0,3.3,2.4,6.5,8,7.7l8.6,2.2
		c21.8,5.9,30,16.3,30,30.6c0,16.3-13.9,30.8-38.7,30.8c-14.7,0-28.7-4.7-38.5-13.7l13.4-17.7c6.3,6.3,15.5,9.8,23.2,9.8
		c8.8,0,12.4-4.7,12.4-9.6c0-3.9-2.9-7.5-9.4-9L474,107c-12-3.1-25.5-10.6-25.5-27.3c0-16.1,13.2-29.5,36.7-29.5
		c12.4,0,24,3.3,33.8,10.4L506.6,77.9z"></path>
	<path class="st0" d="M2.5,173.8h50.7c46.9,0,75.2,31.4,75.2,72.3c0,40.8-28.3,72.1-75.2,72.1H2.5V173.8z M53.2,201.9H32.9v88.2
		h20.2c28.1,0,43.6-18.3,43.6-44C96.7,220.6,80.6,201.9,53.2,201.9"></path>
	<path class="st0" d="M308.6,247.3c-5.5-4.1-12.4-6.7-19.4-6.7c-7.1,0-10.8,3.5-10.8,8.2c0,3.3,2.4,6.5,8,7.7l8.6,2.2
		c21.8,5.9,30,16.3,30,30.6c0,16.3-13.9,30.8-38.7,30.8c-14.7,0-28.7-4.7-38.5-13.7l13.4-17.7c6.3,6.3,15.5,9.8,23.2,9.8
		c8.8,0,12.4-4.7,12.4-9.6c0-3.9-2.9-7.5-9.4-9l-11.4-3.5c-12-3.1-25.5-10.6-25.5-27.3c0-16.1,13.2-29.5,36.7-29.5
		c12.4,0,24,3.3,33.8,10.4L308.6,247.3z"></path>
	<path class="st0" d="M676.4,247.3c-5.5-4.1-12.4-6.7-19.4-6.7c-7.1,0-10.8,3.5-10.8,8.2c0,3.3,2.4,6.5,8,7.7l8.6,2.2
		c21.8,5.9,30,16.3,30,30.6c0,16.3-13.9,30.8-38.7,30.8c-14.7,0-28.7-4.7-38.5-13.7l13.4-17.7c6.3,6.3,15.5,9.8,23.2,9.8
		c8.8,0,12.4-4.7,12.4-9.6c0-3.9-2.9-7.5-9.4-9l-11.4-3.5c-12-3.1-25.5-10.6-25.5-27.3c0-16.1,13.2-29.5,36.7-29.5
		c12.4,0,24,3.3,33.8,10.4L676.4,247.3z"></path>
	<rect x="352.7" y="6.3" class="st0" width="27.5" height="142.6"></rect>
	<path class="st0" d="M357.9,225.1c-5.5,0-10.7-1.4-15.3-3.8h-0.4v96.8h27.5v-95.2C366,224.3,362.1,225.1,357.9,225.1z"></path>
	<path class="st0" d="M374.1,191.8c0,8.9-7.3,16.2-16.2,16.2c-9,0-16.2-7.3-16.2-16.2c0-8.9,7.3-16.2,16.2-16.2
		C366.8,175.6,374.1,182.9,374.1,191.8"></path>
	<path class="st0" d="M416.7,55.7c-5.2,0-10.2-1.2-14.6-3.4v96.5h27.5V53.1C425.7,54.8,421.3,55.7,416.7,55.7z"></path>
	<path class="st0" d="M432.9,22.5c0,8.9-7.3,16.2-16.2,16.2c-8.9,0-16.2-7.3-16.2-16.2c0-8.9,7.3-16.2,16.2-16.2
		C425.7,6.3,432.9,13.5,432.9,22.5"></path>
	<path class="st0" d="M554,55.7c-4.9,0-9.6-1.1-13.8-3v96.1h27.5V52.8C563.5,54.7,558.9,55.7,554,55.7z"></path>
	<path class="st0" d="M570.2,22.5c0,8.9-7.3,16.2-16.2,16.2c-9,0-16.2-7.3-16.2-16.2c0-8.9,7.3-16.2,16.2-16.2
		C562.9,6.3,570.2,13.5,570.2,22.5"></path>
	<path class="st0" d="M560.7,219.6c-9.1,0-17.5,3.3-23.8,8.3l-0.1-0.1l-0.8,0.6V221h0v7.4l-1.2,1c-2-4.5-6.3-7.8-11.4-8.4l0,0h-14.7
		v97.2h27.5v-59.9c3.3-7.7,11.2-13.2,20-13.2c12.2,0,18.3,8.2,18.3,20v53h26.9v-54.8C601.4,235.7,584.1,219.6,560.7,219.6z"></path>
	<path class="st0" d="M641.7,50.2c-9,0-17.4,3.3-23.7,8.2l0-0.1l-2,1.6c-2-4.6-6.4-7.9-11.5-8.4l0,0h-14.7v97.2h27.5V88.9
		c3.3-7.7,11.2-13.2,20-13.2c12.2,0,18.3,8.2,18.3,20v53h26.9V94C682.4,66.3,665.1,50.2,641.7,50.2z"></path>
	<path class="st0" d="M784.7,51.6L784.7,51.6l-4.4-0.1c-4.4,0.7-8.2,3.4-10.3,7.2l-1.8-1.5v-0.1c-6.5-4.1-14.5-6.9-22.9-6.9
		c-28.7,0-47.7,22.4-47.7,50.3c0,28.7,20,49.5,45.4,49.5c10.6,0,20.4-4.3,27.3-12v12.2c0,15.5-10.4,24.1-24.7,24.1
		c-8.8,0-16.4-3.5-21.7-9.6l-15.5,19c9.4,9,22.6,14.6,37.7,14.6c31.6,0,51.6-19.2,51.6-48.9V51.6H784.7z M747.7,125.3
		c-14.3,0-23.2-11.2-23.2-25.1s8.8-25.3,23-25.3c13.6,0,23,11.2,23,24.9C770.5,114.3,761.1,125.3,747.7,125.3z"></path>
	<path class="st0" d="M330.7,51.6H316l0,0h-3c-3.8,0.4-6.8,3.7-6.8,7.6v1.5c-8.1-6.8-18.6-10.4-28.4-10.4c-27.3,0-47.9,22-47.9,50.3
		c0,28.9,20.8,50.3,45.5,50.3c10.4,0,21-4.2,28.3-11.4v9.3h4h0v0.1h7.7l0,0h15.3V51.6z M303.7,102.7c-1.2,13.5-10.6,23-23.4,23
		c-13.7,0-23.4-11-23.4-25.1c0-14.3,9.8-25.3,23.4-25.3c12.8,0,22.2,9.6,23.4,21.9V102.7z"></path>
	<path class="st0" d="M215.2,288.9c-5.8,6.2-13.7,9.2-22,9.2c-13.6,0-24-8.2-24.9-20.8h69.3c0.2-1.8,0.4-4.7,0.4-8.8
		c0-26.5-19.6-48.9-48.5-48.9c-30,0-48.9,22.4-48.9,50.3c0,28.5,20.2,50.3,52,50.3c14.6,0,27.3-4.4,37.3-13.2L215.2,288.9z
		 M189.7,240.6c12,0,20.2,9.2,20.6,20h-41.8C169.7,249.4,177.5,240.6,189.7,240.6z"></path>
	<path class="st0" d="M472,221l-0.1,0.2c-4.7,0.9-8.6,4-10.5,8.2c-0.4-0.4-0.9-0.7-1.4-1l-0.7-0.5l0,0c-6.8-4.9-15.5-8.2-24.9-8.2
		c-28.7,0-47.7,22.4-47.7,50.3c0,28.7,20,49.5,45.4,49.5c10.6,0,20.4-4.3,27.3-12v12.2c0,15.5-10.4,24.1-24.7,24.1
		c-9.2,0-17.1-3.8-22.4-10.4l-15.6,19c9.4,9.4,23,15.3,38.5,15.3c31.6,0,51.6-19.2,51.6-48.9V221H472z M437,294.6
		c-14.3,0-23.2-11.2-23.2-25.1c0-13.9,8.8-25.3,23-25.3c13.6,0,23,11.2,23,24.9C459.8,283.6,450.4,294.6,437,294.6z"></path>
	<path class="st0" d="M194.7,119.2c-5.8,6.5-13.9,9.6-22.4,9.6c-13.6,0-24-8.2-24.9-20.8h69.3c0.2-1.8,0.4-4.7,0.4-8.8
		c0-26.5-19.6-48.9-48.5-48.9c-30,0-48.9,22.4-48.9,50.3c0,28.5,20.2,50.3,52,50.3c14.8,0,27.6-4.5,37.7-13.6L194.7,119.2z
		 M168.8,71.3c12,0,20.2,9.2,20.6,20h-41.8C148.8,80.1,156.6,71.3,168.8,71.3z"></path>
</g>
</svg>
